<svg width="240" height="135" viewBox="0 0 240 135" fill="none" xmlns="http://www.w3.org/2000/svg">
<g clip-path="url(#clip0_2705_38540)">
<path d="M70.4563 59.0054V80.4644H64.7368V59.0054H70.4563ZM64.7368 48.875V54.5724H70.4563V48.875H64.7368ZM199.585 65.8496V80.4276L179.288 80.4644C175.318 80.4644 172.098 78.1486 172.098 74.1788V74.098C172.098 70.1282 175.318 66.9082 179.288 66.9082H193.675V65.1144C193.675 63.8279 192.631 62.784 191.344 62.784L174.333 64.791V59.0127H192.748C196.527 59.0127 199.593 62.0783 199.593 65.8569L199.585 65.8496ZM193.675 75.7079V71.7161L180.765 70.8707C179.413 70.8707 178.317 71.966 178.317 73.3187V74.0392C178.317 74.8625 178.655 75.4653 179.28 75.9064C179.854 76.3108 180.486 76.4063 181.339 76.3108L193.682 75.7006L193.675 75.7079ZM166.32 48.875V80.457H146.022C142.052 80.457 138.832 77.237 138.832 73.2672V66.5186C138.832 62.5488 142.052 59.3288 146.022 59.3288H160.6V48.875H166.32ZM160.593 64.7689L147.485 63.2986C146.132 63.2986 145.037 64.394 145.037 65.7467V74.0392C145.037 75.3918 146.132 76.4872 147.485 76.4872L160.593 74.6934V64.7616V64.7689ZM199.585 80.4276V86.125H205.305V80.4276H199.585ZM132.9 65.8496V80.4276L112.602 80.4644C108.633 80.4644 105.413 78.1486 105.413 74.1788V74.098C105.413 70.1282 108.633 66.9082 112.602 66.9082H126.989V65.1144C126.989 63.8279 125.945 62.784 124.659 62.784L107.647 64.791V59.0127H126.063C129.842 59.0127 132.907 62.0783 132.907 65.8569L132.9 65.8496ZM126.982 75.7079V71.7161L114.073 70.8707C112.72 70.8707 111.625 71.966 111.625 73.3187V74.0392C111.625 74.8625 111.963 75.4653 112.588 75.9064C113.161 76.3108 113.793 76.4063 114.646 76.3108L126.989 75.7006L126.982 75.7079ZM132.9 80.4276V86.125H138.619V80.4276H132.9ZM85.1445 76.4945C83.7919 76.4945 82.6965 75.3992 82.6965 74.0465V65.4232C82.6965 64.0705 83.7919 62.9752 85.1445 62.9752L100.068 65.085V59.0127H83.6742C79.7044 59.0127 76.4845 62.2327 76.4845 66.2025V73.2819C76.4845 77.2518 79.7044 80.4717 83.6742 80.4717H100.068V73.9362L85.1445 76.5093V76.4945ZM43.7851 76.4945C42.4324 76.4945 41.337 75.3992 41.337 74.0465V65.4232C41.337 64.0705 42.4324 62.9752 43.7851 62.9752L58.7086 65.085V59.0127H42.3148C38.345 59.0054 35.125 62.2253 35.125 66.1951V73.2746C35.125 77.2444 38.345 80.4644 42.3148 80.4644H58.7086V73.9289L43.7851 76.5019V76.4945Z" fill="#2D5BFF"/>
</g>
<defs>
<clipPath id="clip0_2705_38540">
<rect width="170.187" height="37.25" fill="white" transform="translate(35.125 48.875)"/>
</clipPath>
</defs>
</svg>
